<?xml version='1.0' encoding='utf-8'?>
<svg xmlns="http://www.w3.org/2000/svg" data-name="Layer 2" viewBox="0 0 89.457 104.39"> <g stroke-width="0" data-name="Layer 1"> <g fill="#c17633"> <path d="m67.363,85.404c-.472,6.35-2.729,11.64-6.772,14.975-1.263,1.028-3.082,1.129-4.312.202-.91-.674-1.735-1.398-2.544-2.139-1.381-1.246-2.577-2.645-3.723-4.043-2.257-2.847-4.026-5.946-5.525-9.147-2.948-6.452-4.717-13.408-5.694-20.601-1.028-7.648-3.453-15.11-7.698-21.612-2.156-3.217-4.733-6.216-7.917-8.692-1.617-1.196-3.302-2.341-5.171-3.234l-2.19-1.095c-1.162-.573-.876-2.274.438-2.594,11.556-2.746,27.44,5.963,38.777,21.528.926,1.246,1.802,2.543,2.662,3.891,1.937,3.049,3.588,6.132,4.935,9.197.809,1.819,1.516,3.639,2.123,5.441,2.139,6.367,3.015,12.533,2.611,17.923Z"/> <path d="m52.231,104.32c2.296-.19,3.033-3.098,1.047-4.082-.018-.009-.037-.018-.055-.027-1.882-.897-3.557-2.037-5.174-3.245-3.183-2.464-5.768-5.463-7.926-8.687-4.246-6.506-6.674-13.959-7.695-21.612-.965-7.197-2.726-14.15-5.673-20.605-1.494-3.212-3.275-6.312-5.528-9.151-1.143-1.402-2.346-2.791-3.73-4.047-1.069-.985-2.196-1.941-3.464-2.785-.669-.446-1.6-.438-2.301.042-11.227,7.696-10.559,28.896,1.807,48.355,10.606,16.689,26.485,26.856,38.691,25.844Z"/> <path d="m79.288,70.782c-3.2,4.902-7.041,8.776-10.983,11.37.404-5.39-.472-11.556-2.611-17.923.606-.421,1.23-.825,1.87-1.23,4.127-2.594,7.782-5.929,10.41-10.073,1.297-2.089,2.341-4.363,2.931-6.839.286-1.247.505-2.51.522-3.824l.051-1.533c.034-.825,1.095-1.112,1.617-.421,4.969,6.401,3.554,19.203-3.807,30.472Z"/> <path d="m80.79,40.755c-.152.96-.404,1.853-.691,2.729-.354,1.112-.842,2.173-1.347,3.201-1.061,2.038-2.375,3.874-3.824,5.576-2.948,3.369-6.502,6.199-10.376,8.641-.067.05-.135.084-.202.135-1.347-3.066-2.998-6.148-4.935-9.197-.859-1.348-1.735-2.645-2.661-3.891,7.614-8.608,17.182-12.263,23.414-8.507.472.286.707.809.623,1.314Z"/> </g> <path d="m.625,41.501c-.101,4.122.275,8.207.986,12.216.749,3.998,1.715,7.959,3.172,11.75,1.418,3.796,3.089,7.515,5.171,11.016,1.976,3.573,4.448,6.833,6.908,10.155-1.455-1.453-2.944-2.905-4.29-4.48-1.271-1.634-2.623-3.223-3.718-4.993-2.389-3.417-4.159-7.232-5.65-11.121-1.457-3.911-2.41-8.007-2.868-12.144-.231-2.068-.325-4.148-.336-6.222.093-2.074.192-4.152.625-6.177Z" fill="#dabe99"/> <path d="m88.707,46.817c.715,2.864.894,5.876.641,8.844-.221,2.978-.918,5.923-1.985,8.725-.495,1.417-1.219,2.743-1.894,4.077-.806,1.266-1.533,2.58-2.523,3.712-1.784,2.407-4.108,4.338-6.497,6.038,1.968-2.203,3.893-4.367,5.43-6.807,1.609-2.379,2.905-4.948,3.911-7.621,1.047-2.658,1.783-5.444,2.258-8.284.459-2.843.725-5.741.659-8.684Z" fill="#dabe99"/> <path d="m47.688,25.944s-9.111-6.222-.444-12.778S54.429.389,54.429.389c0,0,4.732,9.944-2.265,15.629-5.93,4.818-4.475,9.926-4.475,9.926Z" fill="#dabe99"/> <path d="m57.029,39.417s-14.053-9.597-.686-19.708S67.426,0,67.426,0c0,0,7.298,15.338-3.494,24.106-9.147,7.431-6.902,15.311-6.902,15.311Z" fill="#dabe99"/> </g> </svg>